<svg width="55" height="47" fill="none" xmlns="http://www.w3.org/2000/svg"><path d="M32.63 22.95c-.23-2.94-4.05-7.65-4.97-8.77C23.77 9.47 13.13.72 11.36 0c-.5.74-.97 6.63-.77 12.4a9.17 9.17 0 0 0-5.33-.09c3.64 2.63 4.55 3.83 6.92 10.36 2.38 6.52 8.57 11.35 10.48 12.43 0 0-4.56-4.53-6.14-9.1-1.71-4.98-1.3-16.63-1.3-16.63s6.52 5.21 8.34 7.38c0 0 3.12 3.46 3.9 4.84 1 1.79 1.68 3.36 1.36 4.77-.58 2.75-3.5 2.08-.67 2.3 2.6 0 4.84-1.47 4.48-5.72Z" fill="#fff"/><path d="M23.37 22.95c.24-2.94 4.05-7.65 4.98-8.77C32.23 9.47 42.88.72 44.65 0c.5.74.95 6.63.76 12.4a9.19 9.19 0 0 1 5.33-.09c-3.64 2.63-4.55 3.83-6.92 10.36-2.38 6.53-8.57 11.35-10.49 12.43 0 0 4.57-4.53 6.14-9.1 1.71-4.98 1.3-16.63 1.3-16.63s-6.51 5.21-8.33 7.38c0 0-3.12 3.46-3.9 4.84-1 1.79-1.68 3.36-1.36 4.77a2.82 2.82 0 0 0 1.77 2.19l.11.04c-.4.06-.8.08-1.22.07-2.58 0-4.81-1.47-4.47-5.72Zm15.65 17.59h.66v.66h-.66v-.66Zm5.25-3.37a2.34 2.34 0 0 0-1.66-.6h.02a2.35 2.35 0 0 0 0 4.71 2.42 2.42 0 0 0 1.76-.72l-.34-.46c-.38.37-.88.59-1.4.6-1.01 0-1.7-.83-1.7-1.81a1.66 1.66 0 0 1 1.69-1.74c.48 0 .95.18 1.31.5l.32-.48Zm-8.59 3.03c.32.3.73.47 1.16.48.43 0 .79-.23.79-.67 0-.45-.46-.65-.96-.87-.6-.26-1.25-.54-1.25-1.3 0-.71.62-1.27 1.47-1.27.48-.02.94.15 1.3.46l-.3.53a1.6 1.6 0 0 0-1-.4c-.48 0-.82.3-.82.67 0 .41.43.6.92.8.6.26 1.28.54 1.28 1.36 0 .7-.54 1.3-1.44 1.3-.56 0-1.1-.21-1.5-.6l.35-.5Z" fill="#fff"/><path fill-rule="evenodd" clip-rule="evenodd" d="M18.5 36.57a2.29 2.29 0 0 1 2.32 2.32 2.34 2.34 0 1 1-3.22-2.16c.28-.11.59-.17.9-.16Zm0 4.13a1.72 1.72 0 0 0 1.67-1.8 1.68 1.68 0 0 0-2.34-1.64 1.68 1.68 0 0 0-1 1.63 1.73 1.73 0 0 0 1.67 1.8Z" fill="#fff"/><path d="M2.04 36.65h-.67L.99 41.2h.64l.22-2.87.01-.68h.02l.24.68.9 2.05h.57l.9-2.05c.12-.25.25-.67.25-.67h.01v.67l.23 2.87h.63l-.37-4.55h-.66L3.53 39.1l-.22.61h-.02l-.22-.61-1.03-2.46Zm6.55 2.03H6.7v.57h1.88v-.57Zm1.23-2.03h2.5v.55h-1.86v1.5h1.59v.55h-1.6v1.95h-.63v-4.55Zm4 0h-.64v4.55h2.67v-.55h-2.03v-4Zm11.51 3.34-.88-3.34h-.56l-.9 3.34c-.07.25-.1.48-.1.48h-.02a4.66 4.66 0 0 0-.08-.48l-.8-3.34h-.66l1.16 4.55h.74l.78-2.96c.08-.28.14-.64.14-.64s.06.36.14.64l.79 2.96h.74L27 36.65h-.66l-.84 3.34c-.04.16-.06.32-.08.48 0 0-.03-.22-.1-.48Zm2.52-3.34h2.64v.55h-2v1.43h1.63v.55h-1.64v1.47h2.11v.55h-2.74v-4.55Z" fill="#fff"/><path fill-rule="evenodd" clip-rule="evenodd" d="M32.93 36.65h-1.4v4.54h.65v-1.8h.97l.96 1.8h.72l-.96-1.77a1.49 1.49 0 0 0-.14-.2 1.35 1.35 0 0 0 .05-2.47 2.3 2.3 0 0 0-.85-.1Zm.48 2.13a.76.76 0 0 1-.33.05h-.91V37.2h.73c.22-.02.43.02.63.1a.75.75 0 0 1 .36.7.76.76 0 0 1-.48.78Zm13.85-2.21a2.28 2.28 0 0 1 2.33 2.32 2.34 2.34 0 1 1-3.23-2.16c.29-.11.6-.17.9-.16Zm0 4.13a1.72 1.72 0 0 0 1.67-1.8 1.68 1.68 0 1 0-3.35 0 1.72 1.72 0 0 0 1.68 1.8Z" fill="#fff"/><path d="M51.42 36.65h-.67l-.4 4.55H51l.22-2.87.01-.68.26.68.9 2.05h.57l.9-2.05c.11-.25.25-.67.25-.67h.01s-.02.4 0 .67l.23 2.87h.63l-.37-4.55h-.67l-1.03 2.46-.23.61-.22-.61-1.04-2.46Z" fill="#fff"/><path fill-rule="evenodd" clip-rule="evenodd" d="M31.92 46.08v-1.93h-.31v-.31h.31v-.11a1.06 1.06 0 0 1 .26-.77.77.77 0 0 1 .54-.21c.12 0 .24.02.35.06l-.05.32a.61.61 0 0 0-.26-.05c-.35 0-.44.3-.44.65v.12h.55v.3h-.55v1.94l-.4-.01Zm-4.48-3.3h-.4v3.3h.4v-3.3Zm-11.13.14c-.25 0-.5.02-.74.07v3.06c.21.03.42.04.63.04.51 0 .87-.1 1.08-.3a.85.85 0 0 0 .26-.62.81.81 0 0 0-.64-.78.74.74 0 0 0 .53-.69.66.66 0 0 0-.26-.55 1.29 1.29 0 0 0-.86-.23Zm.03 1.36h-.36v-1c.12-.03.23-.04.35-.03.41 0 .7.15.7.51 0 .3-.26.52-.69.52Zm-.02 1.52c-.12 0-.23 0-.34-.02v-1.2h.33c.44 0 .81.16.81.61 0 .46-.39.61-.8.61Zm1.62.02v.26l1.94-.02v-.34h-1.36l.24-.22c.63-.61 1.03-1.06 1.03-1.62a.85.85 0 0 0-.92-.88c-.3 0-.61.1-.85.3l.13.3c.18-.16.4-.25.64-.26a.53.53 0 0 1 .57.35c.03.08.04.16.03.24 0 .46-.35.85-1.13 1.58l-.32.31Zm2.53-2.83c.24-.05.49-.07.73-.07.3-.02.61.06.86.23a.66.66 0 0 1 .26.55.75.75 0 0 1-.53.7.81.81 0 0 1 .58 1.1.66.66 0 0 1-.2.3c-.2.2-.56.29-1.07.29-.21 0-.42-.01-.63-.04v-3.06Zm.4 1.29h.37c.42 0 .68-.22.68-.52 0-.36-.28-.51-.7-.51-.11 0-.23 0-.35.03v1Zm0 1.5c.11.02.23.02.34.02.42 0 .8-.15.8-.6 0-.46-.37-.61-.8-.61h-.34v1.19Zm3.04-1.15v-.3h-1.14v.3h1.14Zm.5-.07c0-.28 0-.51-.03-.73h.37l.02.38a.88.88 0 0 1 .8-.43c.54 0 .95.46.95 1.14 0 .81-.5 1.21-1.03 1.21a.77.77 0 0 1-.7-.35v1.21h-.38v-2.43Zm.4.6c0 .06 0 .12.02.17a.63.63 0 0 0 .6.48c.44 0 .7-.35.7-.87 0-.45-.25-.84-.68-.84a.65.65 0 0 0-.61.52.74.74 0 0 0-.03.17v.37Zm4.56.92-.03-.29h-.02a.83.83 0 0 1-.68.34.64.64 0 0 1-.7-.65c0-.54.49-.84 1.36-.83v-.05a.46.46 0 0 0-.52-.51c-.2 0-.4.05-.58.16l-.1-.25c.23-.14.48-.2.74-.2.7 0 .86.47.86.92v.84c0 .18 0 .36.03.54l-.36-.02Zm-.07-1.16c-.44 0-.95.07-.95.52a.36.36 0 0 0 .23.37c.05.02.1.02.15.02a.55.55 0 0 0 .57-.5v-.4Zm1.55-1.09v-.64l-.42.1v.55h-.35v.31h.35v1.22c-.02.21.04.42.16.59a.57.57 0 0 0 .46.17c.12 0 .24-.01.36-.05l-.02-.3a.97.97 0 0 1-.24.02c-.22 0-.3-.16-.3-.44v-1.2h.58v-.33h-.58Zm4.3 1.55c.05-.15.07-.3.06-.46a1.07 1.07 0 0 0-1.09-1.15c-.62 0-1.11.44-1.11 1.2a1.07 1.07 0 0 0 1.08 1.15 1.1 1.1 0 0 0 1.06-.74Zm-1.04.43c-.4 0-.69-.37-.69-.86 0-.42.21-.87.7-.87.48 0 .67.48.67.86 0 .5-.29.87-.68.87Zm1.6-1.28-.01-.7h.36v.44h.02a.68.68 0 0 1 .62-.5l.11.02v.39a.56.56 0 0 0-.5.14c-.1.1-.17.22-.18.36a1.1 1.1 0 0 0-.02.2v1.2h-.4v-1.55Zm1.54-.1v1.65h.4v-1.36c0-.06 0-.13.03-.2a.56.56 0 0 1 .51-.4c.31 0 .47.26.47.61v1.35h.4v-1.39c0-.07.01-.14.03-.2a.51.51 0 0 1 .48-.38c.33 0 .49.26.49.7v1.27h.4v-1.33c0-.78-.44-.97-.74-.97a.77.77 0 0 0-.5.16c-.1.07-.2.18-.25.29a.66.66 0 0 0-.64-.45.77.77 0 0 0-.7.41h-.02l-.02-.36h-.35l.01.6Z" fill="#fff"/></svg>